<?xml version="1.0" standalone="no"?>
<!DOCTYPE svg PUBLIC "-//W3C//DTD SVG 20010904//EN"
 "http://www.w3.org/TR/2001/REC-SVG-20010904/DTD/svg10.dtd">
<svg version="1.0" xmlns="http://www.w3.org/2000/svg"
 width="419.000000pt" height="419.000000pt" viewBox="0 0 419.000000 419.000000"
 preserveAspectRatio="xMidYMid meet">
<metadata>
Created by potrace 1.11, written by Peter Selinger 2001-2013
</metadata>
<g transform="translate(0.000000,419.000000) scale(0.100000,-0.100000)"
fill="#000000" stroke="none">
<path d="M1865 4124 c-86 -11 -151 -23 -275 -49 -64 -14 -170 -50 -170 -58 0
-4 -4 -5 -10 -2 -5 3 -20 0 -32 -7 -13 -6 -29 -13 -36 -14 -29 -5 -142 -58
-142 -66 0 -5 -4 -7 -8 -4 -16 9 -262 -136 -262 -155 0 -5 -4 -8 -8 -5 -5 3
-18 -2 -28 -12 -10 -9 -36 -28 -56 -42 -20 -13 -34 -28 -32 -32 3 -4 -2 -8
-11 -8 -20 0 -298 -278 -290 -290 4 -6 -2 -10 -11 -10 -10 0 -15 -3 -12 -6 3
-3 -7 -19 -23 -37 -16 -17 -29 -35 -29 -40 0 -4 -9 -17 -20 -29 -24 -26 -106
-161 -102 -167 2 -2 -1 -7 -6 -10 -14 -8 -112 -217 -119 -253 -3 -15 -10 -28
-15 -28 -6 0 -8 -6 -5 -14 3 -7 1 -18 -3 -22 -5 -5 -11 -18 -13 -29 -2 -11 -9
-33 -15 -48 -7 -15 -11 -31 -10 -35 1 -4 -2 -14 -5 -22 -21 -51 -60 -268 -68
-380 -7 -99 -1 -330 11 -415 10 -77 32 -187 56 -285 4 -14 7 -31 7 -37 0 -7 3
-13 7 -13 3 0 6 -8 7 -19 1 -10 9 -36 19 -57 9 -21 18 -46 19 -54 4 -29 37
-100 47 -100 5 0 7 -4 3 -9 -6 -10 32 -91 48 -102 5 -3 7 -8 5 -11 -7 -10 75
-147 85 -141 6 3 7 1 3 -5 -3 -6 0 -16 7 -24 7 -7 14 -16 15 -21 2 -11 34 -56
58 -83 12 -12 20 -25 18 -27 -2 -2 16 -24 40 -50 24 -26 41 -47 38 -47 -3 0 0
-6 6 -12 7 -7 18 -13 25 -13 7 0 12 -5 12 -12 0 -17 127 -143 138 -136 6 3 8
2 5 -3 -6 -11 28 -45 36 -36 3 3 6 0 6 -6 0 -12 135 -116 144 -110 3 1 13 -7
21 -20 9 -12 21 -20 26 -17 5 4 9 3 9 -2 0 -9 62 -47 73 -45 4 1 7 -2 7 -6 0
-9 37 -29 54 -30 5 0 12 -5 15 -10 10 -15 132 -72 142 -66 5 3 9 0 9 -6 0 -6
5 -8 10 -5 6 3 10 2 10 -3 0 -8 69 -39 103 -46 6 -2 25 -8 41 -15 16 -6 36
-13 45 -15 9 -2 23 -6 31 -9 8 -4 24 -8 35 -10 11 -2 27 -7 35 -10 18 -7 111
-26 157 -31 18 -3 40 -7 50 -10 73 -22 563 -27 563 -6 0 3 10 6 23 7 88 7 138
16 177 30 8 3 22 7 30 8 30 4 85 18 95 23 6 4 16 7 23 8 8 2 21 6 30 10 9 4
19 8 22 8 29 5 90 31 90 38 0 5 4 7 9 3 10 -5 179 73 266 123 28 16 69 41 93
54 23 14 39 28 35 31 -3 4 0 7 8 7 8 0 29 13 47 30 18 16 35 30 37 30 14 1 84
57 85 68 0 6 6 12 12 12 17 0 231 221 271 279 17 25 34 48 38 51 18 14 138
214 132 223 -3 6 -2 7 4 4 9 -6 96 165 96 191 0 6 5 12 10 12 5 0 7 7 3 15 -3
8 -2 15 2 15 9 0 45 95 45 117 0 7 4 13 8 13 4 0 6 8 4 18 -1 9 1 22 5 27 13
16 54 196 65 280 2 17 4 30 5 30 12 0 18 353 8 445 -5 47 -10 100 -11 117 -1
18 -4 33 -7 33 -5 0 -9 29 -13 78 0 12 -5 22 -10 22 -4 0 -5 5 -2 10 3 6 2 25
-4 43 -6 17 -21 66 -33 107 -12 41 -26 77 -30 78 -4 2 -6 7 -3 12 5 8 -5 35
-42 118 -9 20 -17 39 -18 42 -9 33 -18 50 -27 50 -6 0 -9 3 -5 6 7 7 -69 154
-87 169 -7 6 -11 16 -8 24 3 8 0 11 -7 7 -6 -4 -11 -2 -11 4 0 15 -70 117
-107 157 -17 18 -29 34 -26 36 2 3 -11 17 -29 32 -18 15 -33 31 -33 34 0 3 -4
5 -8 3 -5 -1 -6 1 -3 6 6 9 -158 172 -219 217 -22 17 -45 35 -51 40 -57 52
-243 167 -257 159 -6 -4 -9 -3 -4 1 11 13 -259 140 -315 149 -7 1 -18 4 -23 8
-10 6 -128 39 -155 43 -8 1 -23 5 -32 9 -9 4 -22 5 -28 1 -5 -3 -10 -1 -10 6
0 6 -8 9 -20 6 -11 -3 -20 -2 -20 2 0 4 -6 8 -12 9 -52 5 -121 12 -163 18 -92
11 -329 10 -430 -2z"/>
</g>
</svg>
